<svg width="673" height="464" viewBox="0 0 673 464" fill="none" xmlns="http://www.w3.org/2000/svg">
<g clip-path="url(#clip0_1763_4148)">
<rect width="673" height="464" fill="white"/>
<path d="M740.124 2H10C4.47715 2 0 6.47717 0 12V453.817C0 459.34 4.47718 463.817 10 463.817H740.124C745.647 463.817 750.124 459.34 750.124 453.817V12C750.124 6.47715 745.646 2 740.124 2Z" fill="#E6E6E6"/>
<path d="M738.237 23.9082H12.7637C10.5545 23.9082 8.76367 25.6991 8.76367 27.9082V450.178C8.76367 452.387 10.5545 454.178 12.7636 454.178H738.237C740.447 454.178 742.237 452.387 742.237 450.178V27.9082C742.237 25.6991 740.447 23.9082 738.237 23.9082Z" fill="white"/>
<path d="M0 12C0 6.47716 4.47715 2 10 2H741C746.523 2 751 6.47716 751 12V15.1447H0V12Z" fill="#580101"/>
<rect x="439.5" y="39.5" width="199" height="206" rx="7.5" fill="white"/>
<path d="M506.732 137.679C506.724 130.588 509.486 123.763 514.449 118.608L497.416 95.608C496.715 94.6604 495.814 93.8722 494.775 93.297C493.735 92.7219 492.581 92.3732 491.392 92.2749C490.203 92.1765 489.006 92.3308 487.883 92.7271C486.76 93.1235 485.737 93.7526 484.884 94.5717C479.05 100.152 474.418 106.826 471.263 114.197C468.109 121.567 466.496 129.485 466.522 137.479C466.522 140.498 466.751 143.513 467.208 146.498C467.387 147.678 467.827 148.806 468.496 149.803C469.165 150.799 470.048 151.641 471.082 152.268C472.105 152.889 473.254 153.284 474.448 153.425C475.642 153.566 476.854 153.449 477.997 153.083L507.407 143.708C506.96 141.728 506.733 139.707 506.732 137.679Z" fill="#E4E4E4"/>
<path d="M508.093 146.826L477.581 156.676C476.452 157.039 475.414 157.638 474.539 158.434C473.663 159.23 472.97 160.204 472.506 161.289C472.042 162.374 471.819 163.546 471.851 164.724C471.882 165.903 472.169 167.061 472.691 168.12C477.036 176.878 483.441 184.468 491.364 190.245C499.287 196.023 508.495 199.818 518.207 201.311C519.39 201.492 520.598 201.416 521.749 201.089C522.899 200.762 523.965 200.192 524.873 199.417C525.78 198.645 526.508 197.686 527.007 196.608C527.505 195.53 527.763 194.357 527.763 193.17L527.763 164.856C523.244 163.692 519.084 161.436 515.653 158.291C512.221 155.146 509.625 151.208 508.093 146.826Z" fill="#E4E4E4"/>
<path d="M598.932 164.745C598.42 163.529 597.652 162.438 596.68 161.545C595.708 160.652 594.555 159.979 593.299 159.572L560.206 148.823C558.274 153.365 555.183 157.319 551.241 160.29C547.299 163.261 542.645 165.145 537.746 165.752L537.746 200.22C537.747 201.543 538.034 202.85 538.587 204.052C539.14 205.254 539.947 206.322 540.951 207.183C541.956 208.044 543.135 208.678 544.408 209.041C545.68 209.405 547.017 209.489 548.325 209.288C559.077 207.625 569.27 203.397 578.041 196.962C586.812 190.527 593.903 182.074 598.713 172.319C599.292 171.146 599.611 169.863 599.648 168.556C599.686 167.249 599.442 165.949 598.932 164.745Z" fill="#840908"/>
<path d="M590.746 86.1968C589.807 85.2797 588.68 84.5752 587.443 84.1314C586.207 83.6876 584.888 83.5149 583.579 83.625C582.269 83.7351 580.998 84.1255 579.853 84.7695C578.708 85.4135 577.716 86.296 576.944 87.357L554.389 118.322C556.983 120.917 559.041 123.996 560.442 127.383C561.844 130.77 562.563 134.4 562.559 138.065C562.559 138.746 562.526 139.42 562.478 140.09L598.331 151.709C599.598 152.117 600.94 152.245 602.262 152.083C603.585 151.921 604.855 151.474 605.987 150.772C607.118 150.07 608.082 149.131 608.812 148.019C609.542 146.908 610.02 145.651 610.213 144.336C610.716 140.993 610.969 137.618 610.969 134.238C610.997 125.287 609.221 116.422 605.747 108.17C602.273 99.9168 597.172 92.4446 590.746 86.1968Z" fill="#BE1816"/>
<path d="M535.226 106.651C540.059 106.646 544.811 107.905 549.017 110.306L562.795 91.1685C563.497 90.1938 563.982 89.077 564.215 87.8951C564.448 86.7132 564.424 85.4943 564.145 84.3226C563.875 83.1732 563.361 82.0967 562.638 81.1673C561.916 80.2379 561.002 79.4779 559.96 78.9396C551.453 74.5738 542.047 72.2914 532.504 72.2774C522.961 72.2634 513.548 74.5181 505.029 78.8589C503.955 79.4059 503.011 80.1821 502.264 81.1337C501.516 82.0853 500.983 83.1896 500.7 84.3699C500.421 85.5335 500.396 86.7443 500.627 87.9184C500.858 89.0926 501.339 90.202 502.038 91.1699L517.668 112.88C522.644 108.841 528.84 106.643 535.226 106.651Z" fill="#E4E4E4"/>
<rect x="439.5" y="39.5" width="199" height="206" rx="7.5" stroke="#F2F2F2" stroke-width="5"/>
<rect x="35.5" y="176.5" width="257" height="237" rx="7.5" fill="white"/>
<path d="M61.8114 335.919C63.5422 334.015 65.8408 333.319 68.2689 333.462C70.7186 333.607 73.257 334.611 75.3 336.055C80.4911 339.723 82.0627 346.498 82.8886 352.902C83.0276 353.981 83.1576 355.114 83.2919 356.286C83.8201 360.892 84.4147 366.079 85.8875 370.742C87.7497 376.639 91.0775 381.919 97.6173 384.327C103.688 386.563 110.525 384.696 115.495 381.178C120.961 377.309 124.318 371.397 126.537 365.403C129.218 358.163 130.762 350.439 132.062 342.938C133.397 335.238 134.272 327.453 134.665 319.646C135.05 311.999 134.799 304.41 134.497 296.819C134.26 290.878 134.186 284.835 136.119 279.37C138.038 273.946 142.456 269.911 148.192 269.378C153.873 268.851 159.788 271.249 163.96 275.169C168.978 279.883 171.643 286.121 173.339 292.9C174.454 297.355 175.13 301.938 175.795 306.443C176.15 308.846 176.501 311.227 176.914 313.554C178.145 320.493 179.962 327.633 183.82 333.805C186.994 338.884 191.398 343.131 196.459 346.278C206.66 352.621 219.689 354.493 231.075 350.11C242.152 345.846 251.057 336.535 254.913 325.337C255.87 322.559 256.458 319.696 256.756 316.795C256.819 316.182 256.622 315.616 256.195 315.22C255.796 314.849 255.284 314.707 254.828 314.708C253.935 314.71 252.835 315.303 252.703 316.591C251.502 328.287 243.971 338.919 233.632 344.487C223.047 350.187 210.192 349.479 199.792 343.537C194.68 340.616 190.246 336.502 187.171 331.503C183.435 325.427 181.812 318.305 180.617 311.169C180.331 309.461 180.065 307.705 179.794 305.924C179.052 301.044 178.28 295.967 177.003 291.115C175.252 284.462 172.521 278.088 167.506 272.956C163.59 268.95 158.042 266.148 152.402 265.458C146.745 264.765 140.925 266.195 136.622 270.758C132.231 275.415 130.741 281.45 130.351 287.58C130.089 291.698 130.323 295.99 130.542 299.995C130.646 301.9 130.747 303.739 130.789 305.464C131.176 321.423 129.528 337.42 125.876 352.961C124.276 359.772 122.47 366.611 118.579 372.269C115.042 377.412 109.33 381.293 103.085 381.231C96.9947 381.171 92.5932 376.706 90.3126 371.084C88.454 366.503 87.9343 361.677 87.3974 356.693C87.2329 355.166 87.0667 353.624 86.86 352.069C86.0679 346.113 84.6005 339.207 79.8638 334.59C76.218 331.037 70.7592 328.69 65.4862 329.53C62.9081 329.941 60.6195 331.194 58.8723 333.117C57.9811 334.097 58.322 335.318 58.9645 335.961C59.2897 336.287 59.7502 336.54 60.2847 336.57C60.851 336.602 61.3968 336.375 61.8114 335.919Z" fill="#BE1816" stroke="#BE1816" stroke-width="2"/>
<path d="M107.058 276.638L59.9826 276.638C58.7957 276.638 57.8301 275.674 57.8301 274.488C57.8301 273.303 58.7958 272.339 59.9826 272.339L107.058 272.339C108.245 272.339 109.21 273.303 109.21 274.488C109.21 275.674 108.245 276.638 107.058 276.638Z" fill="#E6E6E6"/>
<path d="M124.182 235.592L94.2306 235.592C93.0438 235.592 92.0781 234.628 92.0781 233.442C92.0781 232.257 93.0438 231.293 94.2306 231.293L124.182 231.293C125.369 231.293 126.334 232.257 126.334 233.442C126.334 234.628 125.369 235.592 124.182 235.592Z" fill="#E6E6E6"/>
<path d="M67.6044 335.19C67.6044 338.928 64.5704 341.959 60.8266 341.959C57.0827 341.959 54.0488 338.928 54.0488 335.19C54.0488 331.453 57.0827 328.422 60.8266 328.422C64.5704 328.422 67.6044 331.453 67.6044 335.19Z" fill="#FCF3F3" stroke="#580101"/>
<path d="M108.702 383.077C108.702 386.815 105.668 389.846 101.924 389.846C98.1804 389.846 95.1465 386.815 95.1465 383.077C95.1465 379.34 98.1804 376.309 101.924 376.309C105.668 376.309 108.702 379.34 108.702 383.077Z" fill="#FCF3F3" stroke="#580101"/>
<path d="M155.794 267.636C155.794 271.373 152.76 274.404 149.016 274.404C145.272 274.404 142.238 271.373 142.238 267.636C142.238 263.898 145.272 260.867 149.016 260.867C152.76 260.867 155.794 263.898 155.794 267.636Z" fill="#FCF3F3" stroke="#580101"/>
<path d="M224.29 349.728C224.29 353.465 221.256 356.496 217.512 356.496C213.768 356.496 210.734 353.465 210.734 349.728C210.734 345.99 213.768 342.959 217.512 342.959C221.256 342.959 224.29 345.99 224.29 349.728Z" fill="#FCF3F3" stroke="#580101"/>
<path d="M264.532 316.378C264.532 320.115 261.498 323.146 257.754 323.146C254.01 323.146 250.977 320.115 250.977 316.378C250.977 312.64 254.01 309.609 257.754 309.609C261.498 309.609 264.532 312.64 264.532 316.378Z" fill="#FCF3F3" stroke="#580101"/>
<path d="M221.05 242.25L226.595 246.784C224.912 242.555 224.089 236.4 224.012 231.646C220.962 235.297 216.448 239.57 212.477 241.805L219.546 241.755C210.46 260.737 191.479 271.262 173.848 266.873L173.418 267.533C191.835 272.118 211.677 262.018 221.05 242.25Z" fill="#580101"/>
<path d="M191.764 206.495L263.298 206.495C266.332 206.495 268.801 208.96 268.801 211.991C268.801 215.021 266.332 217.486 263.298 217.486L191.764 217.486C188.73 217.486 186.262 215.021 186.262 211.991C186.262 208.96 188.73 206.495 191.764 206.495Z" fill="#BE1816"/>
<rect x="35.5" y="176.5" width="257" height="237" rx="7.5" stroke="#F2F2F2" stroke-width="5"/>
<rect x="98.5" y="39.5" width="265" height="109" rx="7.5" fill="white"/>
<path d="M202.157 124.576L176.805 124.576C176.158 124.575 175.531 124.343 175.038 123.923C174.545 123.502 174.216 122.92 174.111 122.28C172.458 111.521 172.458 100.572 174.111 89.814C174.216 89.1737 174.545 88.5914 175.038 88.1709C175.531 87.7503 176.158 87.5188 176.805 87.5176L202.157 87.5176C202.568 87.5163 202.973 87.6089 203.343 87.7883C203.713 87.9677 204.037 88.2292 204.29 88.5529C204.549 88.8813 204.73 89.2645 204.819 89.6734C204.908 90.0823 204.903 90.5062 204.804 90.9127C202.432 100.862 202.432 111.231 204.803 121.181C204.903 121.587 204.908 122.011 204.819 122.42C204.73 122.829 204.549 123.212 204.29 123.541C204.037 123.864 203.713 124.126 203.343 124.305C202.973 124.485 202.568 124.577 202.157 124.576Z" fill="#E4E4E4"/>
<path d="M287.038 124.576L261.686 124.576C261.038 124.575 260.412 124.343 259.919 123.923C259.426 123.502 259.097 122.92 258.992 122.28C257.339 111.521 257.339 100.572 258.992 89.814C259.097 89.1737 259.426 88.5915 259.919 88.1709C260.412 87.7504 261.038 87.5189 261.686 87.5176L287.038 87.5176C287.449 87.5163 287.854 87.6089 288.224 87.7884C288.594 87.9679 288.918 88.2295 289.171 88.5533C289.43 88.8816 289.611 89.2647 289.7 89.6736C289.789 90.0825 289.784 90.5063 289.684 90.9127C287.313 100.862 287.313 111.231 289.684 121.181C289.784 121.587 289.789 122.011 289.7 122.42C289.611 122.829 289.43 123.212 289.171 123.54C288.918 123.864 288.594 124.126 288.224 124.305C287.854 124.485 287.449 124.577 287.038 124.576Z" fill="#E4E4E4"/>
<path d="M159.037 99.5038L159.036 99.5038L133.685 99.5038C133.156 99.5028 132.644 99.3137 132.241 98.97C131.839 98.6268 131.57 98.1516 131.484 97.6288C129.839 86.9224 129.839 76.0267 131.484 65.3202C131.57 64.7974 131.839 64.3223 132.241 63.9791C132.644 63.6355 133.156 63.4464 133.685 63.4453L159.036 63.4453L159.037 63.4453C159.372 63.4443 159.702 63.5197 160.003 63.6659C160.305 63.812 160.569 64.0251 160.775 64.289L160.776 64.2904C160.989 64.5591 161.137 64.8727 161.209 65.2074C161.282 65.5422 161.278 65.8892 161.197 66.222L161.196 66.2245C158.806 76.2503 158.806 86.6988 161.196 96.7246L161.197 96.7272C161.278 97.06 161.282 97.407 161.209 97.7417C161.137 98.0764 160.989 98.39 160.777 98.6586L160.775 98.6601C160.569 98.924 160.305 99.1371 160.004 99.2833L160.222 99.7331L160.003 99.2833C159.702 99.4294 159.372 99.5048 159.037 99.5038Z" fill="#FCF3F3" stroke="#BE1816"/>
<path d="M244.77 100.004L219.419 100.004C219.008 100.005 218.602 99.9125 218.232 99.733C217.863 99.5535 217.539 99.2919 217.285 98.968C217.026 98.6398 216.845 98.2567 216.756 97.8478C216.667 97.4389 216.673 97.0151 216.772 96.6086C219.143 86.659 219.143 76.29 216.772 66.3405C216.673 65.934 216.667 65.5102 216.756 65.1013C216.845 64.6925 217.026 64.3093 217.285 63.9811C217.539 63.6572 217.863 63.3956 218.232 63.2161C218.602 63.0366 219.008 62.944 219.419 62.9453L244.77 62.9453C245.418 62.9465 246.044 63.178 246.538 63.5986C247.031 64.0191 247.359 64.6014 247.464 65.2418C249.118 76.0002 249.118 86.9489 247.464 97.7073C247.359 98.3477 247.031 98.93 246.538 99.3505C246.044 99.771 245.418 100.003 244.77 100.004Z" fill="#BE1816"/>
<path d="M328.292 100.004L302.94 100.004C302.529 100.005 302.124 99.9125 301.754 99.733C301.384 99.5535 301.06 99.2919 300.807 98.968C300.548 98.6398 300.367 98.2567 300.278 97.8478C300.189 97.4389 300.194 97.0151 300.294 96.6086C302.665 86.659 302.665 76.29 300.293 66.3405C300.194 65.934 300.189 65.5102 300.278 65.1013C300.367 64.6925 300.548 64.3093 300.807 63.9811C301.06 63.6572 301.384 63.3956 301.754 63.2161C302.124 63.0366 302.529 62.944 302.94 62.9453L328.292 62.9453C328.939 62.9466 329.566 63.1782 330.059 63.5987C330.552 64.0192 330.881 64.6014 330.986 65.2418C332.639 76.0002 332.639 86.9488 330.986 97.7073C330.881 98.3476 330.552 98.9299 330.059 99.3504C329.566 99.771 328.939 100.002 328.292 100.004Z" fill="#580101"/>
<rect x="98.5" y="39.5" width="265" height="109" rx="7.5" stroke="#F2F2F2" stroke-width="5"/>
<rect x="341.5" y="266.5" width="260" height="153" rx="7.5" fill="white"/>
<path d="M435.4 344.345C435.399 344.473 435.398 344.6 435.398 344.728L435.398 344.728C435.399 353.104 438.16 361.248 443.255 367.91C448.351 374.571 455.5 379.382 463.605 381.604C471.709 383.826 480.322 383.336 488.121 380.21C495.919 377.084 502.473 371.494 506.775 364.299C511.077 357.103 512.89 348.699 511.935 340.377C510.979 332.056 507.309 324.277 501.488 318.234C495.666 312.192 488.015 308.221 479.71 306.93C471.546 305.66 463.193 307.049 455.89 310.884L446.689 298.686C456.723 292.826 468.405 290.377 479.969 291.72C491.717 293.084 502.681 298.284 511.151 306.508C519.62 314.733 525.118 325.518 526.787 337.183C528.456 348.847 526.203 360.734 520.378 370.988C514.554 381.242 505.485 389.288 494.588 393.868C483.691 398.449 471.578 399.306 460.14 396.307C448.702 393.309 438.582 386.622 431.36 377.291C424.138 367.96 420.22 356.51 420.217 344.728C420.217 344.725 420.217 344.723 420.217 344.72L435.4 344.345Z" fill="#FCF3F3" stroke="#BE1816"/>
<path d="M455.748 311.527L445.952 298.54C438.02 303.283 431.443 309.975 426.85 317.975C422.257 325.975 419.803 335.016 419.723 344.232L435.909 343.833C436.065 337.184 437.982 330.695 441.466 325.021C444.95 319.348 449.877 314.693 455.748 311.527Z" fill="#BE1816"/>
<path d="M520.197 317.308L520.859 317.975L540.026 299.058L539.363 298.392L520.197 317.308Z" fill="#580101"/>
<path d="M402.874 305.164L426.404 318.312L426.865 317.494L403.335 304.346L402.874 305.164Z" fill="#580101"/>
<path d="M557.204 302.381H529.288C528.792 302.38 528.316 302.182 527.965 301.83C527.614 301.478 527.417 301 527.416 300.502V296.556C527.417 296.058 527.614 295.581 527.965 295.228C528.316 294.876 528.792 294.678 529.288 294.678H557.204C557.7 294.678 558.176 294.876 558.527 295.228C558.878 295.581 559.075 296.058 559.076 296.556V300.502C559.075 301 558.878 301.478 558.527 301.83C558.176 302.182 557.7 302.38 557.204 302.381Z" fill="#BE1816"/>
<path d="M413.547 308.957H385.632C385.632 308.957 385.631 308.957 385.631 308.957C385.268 308.956 384.92 308.812 384.663 308.553C384.405 308.295 384.26 307.944 384.26 307.578V303.633C384.26 303.266 384.405 302.916 384.663 302.658C384.92 302.399 385.268 302.254 385.631 302.254H413.547C413.91 302.254 414.259 302.399 414.516 302.658C414.773 302.916 414.918 303.267 414.919 303.633V307.578C414.918 307.944 414.773 308.295 414.516 308.553C414.259 308.812 413.91 308.956 413.547 308.957C413.547 308.957 413.547 308.957 413.547 308.957Z" fill="#FCF3F3" stroke="#BE1816"/>
<rect x="341.5" y="266.5" width="260" height="153" rx="7.5" stroke="#F2F2F2" stroke-width="5"/>
</g>
<defs>
<clipPath id="clip0_1763_4148">
<rect width="673" height="464" fill="white"/>
</clipPath>
</defs>
</svg>
